M48
; DRILL file {KiCad 9.0.1} date 2025-08-01T22:35:38-0400
; FORMAT={-:-/ absolute / inch / decimal}
; #@! TF.CreationDate,2025-08-01T22:35:38-04:00
; #@! TF.GenerationSoftware,Kicad,Pcbnew,9.0.1
; #@! TF.FileFunction,Plated,1,4,PTH
FMAT,2
INCH
; #@! TA.AperFunction,Plated,PTH,ViaDrill
T1C0.0079
; #@! TA.AperFunction,Plated,PTH,ViaDrill
T2C0.0118
; #@! TA.AperFunction,Plated,PTH,ViaDrill
T3C0.0157
; #@! TA.AperFunction,Plated,PTH,ComponentDrill
T4C0.0236
; #@! TA.AperFunction,Plated,PTH,ComponentDrill
T5C0.0276
; #@! TA.AperFunction,Plated,PTH,ViaDrill
T6C0.0394
; #@! TA.AperFunction,Plated,PTH,ComponentDrill
T7C0.0394
%
G90
G05
T1
X4.5717Y-2.3285
X4.5851Y-4.1496
X4.5851Y-4.189
X4.5851Y-4.2874
X4.5851Y-4.3465
X4.5851Y-4.4055
X4.5851Y-4.4646
X4.6048Y-4.1299
X4.6048Y-4.1693
X4.6048Y-4.2087
X4.6048Y-4.248
X4.6245Y-4.2283
X4.6717Y-2.3943
X4.7032Y-4.5039
X4.7426Y-4.5039
X4.8433Y-4.2022
X4.8717Y-2.1831
X4.8875Y-4.589
X4.8953Y-4.1758
X4.9197Y-4.589
X4.9447Y-3.7618
X4.9447Y-4.1018
X4.9717Y-2.1831
X4.9947Y-3.7638
X5.0447Y-3.7618
X5.0717Y-2.1831
X5.0947Y-3.7618
X5.0947Y-4.1972
X5.0969Y-4.6024
X5.1363Y-4.6024
X5.1451Y-3.7205
X5.1717Y-2.1831
X5.1843Y-3.1969
X5.2295Y-3.6178
X5.2717Y-2.3943
X5.4267Y-4.2874
X5.4267Y-4.3465
X5.4267Y-4.4055
X5.4267Y-4.4646
X5.4267Y-4.563
X5.4717Y-2.1831
X5.4717Y-2.6161
X5.5362Y-3.8589
X5.5559Y-2.661
X5.5559Y-3.8392
X5.5559Y-3.8885
X5.63Y-3.1732
X5.6321Y-3.124
X5.6321Y-3.2224
X5.6722Y-3.374
X5.6821Y-3.1486
X5.6821Y-3.1978
X5.7411Y-3.2992
X5.7415Y-3.0472
X5.8179Y-3.1043
X5.8179Y-3.1436
X5.8179Y-3.183
X5.8179Y-3.2224
X5.8396Y-3.1436
X5.8396Y-3.2027
X5.9026Y-2.4228
X5.9163Y-2.5016
T2
X4.1594Y-2.4622
X4.2067Y-2.4622
X4.2717Y-2.1909
X4.2717Y-2.2382
X4.2717Y-2.6862
X4.2717Y-2.7335
X4.7717Y-2.1909
X4.7717Y-2.2382
X4.7717Y-2.6862
X4.7717Y-2.7335
X5.2717Y-2.1909
X5.2717Y-2.2382
X5.2717Y-2.6862
X5.2717Y-2.7335
X5.7717Y-2.1909
X5.7717Y-2.2382
X5.7717Y-2.6862
X5.7717Y-2.7335
T3
X5.7264Y-2.4622
X5.7736Y-2.4622
T6
X5.452Y-3.1607
T7
X4.0276Y-3.065
X4.0276Y-3.165
X4.0276Y-3.265
X4.0276Y-3.4633
X4.0276Y-3.5633
X4.0276Y-3.6633
X4.0276Y-3.7633
X4.0276Y-4.7195
X4.0276Y-4.8195
T4
G00X4.161Y-3.9427
M15
G01X4.1374Y-3.9427
M16
G05
G00X4.161Y-4.5927
M15
G01X4.1374Y-4.5927
M16
G05
G00X4.4379Y-3.9427
M15
G01X4.3946Y-3.9427
M16
G05
G00X4.4379Y-4.5927
M15
G01X4.3946Y-4.5927
M16
G05
G00X5.5739Y-4.1593
M15
G01X5.6173Y-4.1593
M16
G05
G00X5.5739Y-4.8093
M15
G01X5.6173Y-4.8093
M16
G05
G00X5.7844Y-3.0029
M15
G01X5.8199Y-3.0029
M16
G05
G00X5.7844Y-3.3435
M15
G01X5.8199Y-3.3435
M16
G05
G00X5.8508Y-4.1593
M15
G01X5.8744Y-4.1593
M16
G05
G00X5.8508Y-4.8093
M15
G01X5.8744Y-4.8093
M16
G05
G00X5.9557Y-3.0029
M15
G01X5.9793Y-3.0029
M16
G05
G00X5.9557Y-3.3435
M15
G01X5.9793Y-3.3435
M16
G05
T5
G00X5.6213Y-3.4652
M15
G01X5.6921Y-3.4652
M16
G05
G00X5.6213Y-4.0361
M15
G01X5.6921Y-4.0361
M16
G05
G00X5.8772Y-3.4652
M15
G01X5.9087Y-3.4652
M16
G05
G00X5.8772Y-4.0361
M15
G01X5.9087Y-4.0361
M16
G05
M30
