%TF.GenerationSoftware,KiCad,Pcbnew,9.0.1*%
%TF.CreationDate,2025-08-01T22:35:37-04:00*%
%TF.ProjectId,hardwareddc-aux-breakout,68617264-7761-4726-9564-64632d617578,rev?*%
%TF.SameCoordinates,Original*%
%TF.FileFunction,Copper,L1,Top*%
%TF.FilePolarity,Positive*%
%FSLAX46Y46*%
G04 Gerber Fmt 4.6, Leading zero omitted, Abs format (unit mm)*
G04 Created by KiCad (PCBNEW 9.0.1) date 2025-08-01 22:35:37*
%MOMM*%
%LPD*%
G01*
G04 APERTURE LIST*
G04 Aperture macros list*
%AMRoundRect*
0 Rectangle with rounded corners*
0 $1 Rounding radius*
0 $2 $3 $4 $5 $6 $7 $8 $9 X,Y pos of 4 corners*
0 Add a 4 corners polygon primitive as box body*
4,1,4,$2,$3,$4,$5,$6,$7,$8,$9,$2,$3,0*
0 Add four circle primitives for the rounded corners*
1,1,$1+$1,$2,$3*
1,1,$1+$1,$4,$5*
1,1,$1+$1,$6,$7*
1,1,$1+$1,$8,$9*
0 Add four rect primitives between the rounded corners*
20,1,$1+$1,$2,$3,$4,$5,0*
20,1,$1+$1,$4,$5,$6,$7,0*
20,1,$1+$1,$6,$7,$8,$9,0*
20,1,$1+$1,$8,$9,$2,$3,0*%
%AMFreePoly0*
4,1,37,0.800000,0.796148,0.878414,0.796148,1.032228,0.765552,1.177117,0.705537,1.307515,0.618408,1.418408,0.507515,1.505537,0.377117,1.565552,0.232228,1.596148,0.078414,1.596148,-0.078414,1.565552,-0.232228,1.505537,-0.377117,1.418408,-0.507515,1.307515,-0.618408,1.177117,-0.705537,1.032228,-0.765552,0.878414,-0.796148,0.800000,-0.796148,0.800000,-0.800000,-1.400000,-0.800000,
-1.403843,-0.796157,-1.439018,-0.796157,-1.511114,-0.766294,-1.566294,-0.711114,-1.596157,-0.639018,-1.596157,-0.603843,-1.600000,-0.600000,-1.600000,0.600000,-1.596157,0.603843,-1.596157,0.639018,-1.566294,0.711114,-1.511114,0.766294,-1.439018,0.796157,-1.403843,0.796157,-1.400000,0.800000,0.800000,0.800000,0.800000,0.796148,0.800000,0.796148,$1*%
%AMFreePoly1*
4,1,37,1.403843,0.796157,1.439018,0.796157,1.511114,0.766294,1.566294,0.711114,1.596157,0.639018,1.596157,0.603843,1.600000,0.600000,1.600000,-0.600000,1.596157,-0.603843,1.596157,-0.639018,1.566294,-0.711114,1.511114,-0.766294,1.439018,-0.796157,1.403843,-0.796157,1.400000,-0.800000,-0.800000,-0.800000,-0.800000,-0.796148,-0.878414,-0.796148,-1.032228,-0.765552,-1.177117,-0.705537,
-1.307515,-0.618408,-1.418408,-0.507515,-1.505537,-0.377117,-1.565552,-0.232228,-1.596148,-0.078414,-1.596148,0.078414,-1.565552,0.232228,-1.505537,0.377117,-1.418408,0.507515,-1.307515,0.618408,-1.177117,0.705537,-1.032228,0.765552,-0.878414,0.796148,-0.800000,0.796148,-0.800000,0.800000,1.400000,0.800000,1.403843,0.796157,1.403843,0.796157,$1*%
%AMFreePoly2*
4,1,37,1.600000,0.796148,1.678414,0.796148,1.832228,0.765552,1.977117,0.705537,2.107515,0.618408,2.218408,0.507515,2.305537,0.377117,2.365552,0.232228,2.396148,0.078414,2.396148,-0.078414,2.365552,-0.232228,2.305537,-0.377117,2.218408,-0.507515,2.107515,-0.618408,1.977117,-0.705537,1.832228,-0.765552,1.678414,-0.796148,1.600000,-0.796148,1.600000,-0.800000,-0.600000,-0.800000,
-0.603843,-0.796157,-0.639018,-0.796157,-0.711114,-0.766294,-0.766294,-0.711114,-0.796157,-0.639018,-0.796157,-0.603843,-0.800000,-0.600000,-0.800000,0.600000,-0.796157,0.603843,-0.796157,0.639018,-0.766294,0.711114,-0.711114,0.766294,-0.639018,0.796157,-0.603843,0.796157,-0.600000,0.800000,1.600000,0.800000,1.600000,0.796148,1.600000,0.796148,$1*%
G04 Aperture macros list end*
%TA.AperFunction,SMDPad,CuDef*%
%ADD10RoundRect,0.150000X0.200000X-0.150000X0.200000X0.150000X-0.200000X0.150000X-0.200000X-0.150000X0*%
%TD*%
%TA.AperFunction,SMDPad,CuDef*%
%ADD11RoundRect,0.075000X-0.125000X-0.075000X0.125000X-0.075000X0.125000X0.075000X-0.125000X0.075000X0*%
%TD*%
%TA.AperFunction,SMDPad,CuDef*%
%ADD12R,2.387600X0.304800*%
%TD*%
%TA.AperFunction,ComponentPad*%
%ADD13O,2.300000X1.200000*%
%TD*%
%TA.AperFunction,ComponentPad*%
%ADD14O,1.800000X1.200000*%
%TD*%
%TA.AperFunction,SMDPad,CuDef*%
%ADD15RoundRect,0.150000X-0.200000X0.150000X-0.200000X-0.150000X0.200000X-0.150000X0.200000X0.150000X0*%
%TD*%
%TA.AperFunction,ComponentPad*%
%ADD16R,1.700000X1.700000*%
%TD*%
%TA.AperFunction,ComponentPad*%
%ADD17C,1.700000*%
%TD*%
%TA.AperFunction,SMDPad,CuDef*%
%ADD18RoundRect,0.135000X-0.135000X-0.185000X0.135000X-0.185000X0.135000X0.185000X-0.135000X0.185000X0*%
%TD*%
%TA.AperFunction,SMDPad,CuDef*%
%ADD19RoundRect,0.140000X-0.170000X0.140000X-0.170000X-0.140000X0.170000X-0.140000X0.170000X0.140000X0*%
%TD*%
%TA.AperFunction,SMDPad,CuDef*%
%ADD20O,1.800000X1.100000*%
%TD*%
%TA.AperFunction,SMDPad,CuDef*%
%ADD21O,1.450000X1.050000*%
%TD*%
%TA.AperFunction,SMDPad,CuDef*%
%ADD22FreePoly0,270.000000*%
%TD*%
%TA.AperFunction,SMDPad,CuDef*%
%ADD23RoundRect,0.800000X-0.000010X0.800000X-0.000010X-0.800000X0.000010X-0.800000X0.000010X0.800000X0*%
%TD*%
%TA.AperFunction,SMDPad,CuDef*%
%ADD24FreePoly1,270.000000*%
%TD*%
%TA.AperFunction,SMDPad,CuDef*%
%ADD25RoundRect,0.800000X-0.800000X-0.000010X0.800000X-0.000010X0.800000X0.000010X-0.800000X0.000010X0*%
%TD*%
%TA.AperFunction,SMDPad,CuDef*%
%ADD26FreePoly2,180.000000*%
%TD*%
%TA.AperFunction,SMDPad,CuDef*%
%ADD27RoundRect,0.300000X-0.450000X0.450000X-0.450000X-0.450000X0.450000X-0.450000X0.450000X0.450000X0*%
%TD*%
%TA.AperFunction,SMDPad,CuDef*%
%ADD28RoundRect,0.075000X0.125000X0.075000X-0.125000X0.075000X-0.125000X-0.075000X0.125000X-0.075000X0*%
%TD*%
%TA.AperFunction,SMDPad,CuDef*%
%ADD29R,2.600000X0.300000*%
%TD*%
%TA.AperFunction,ComponentPad*%
%ADD30O,3.300000X1.500000*%
%TD*%
%TA.AperFunction,ComponentPad*%
%ADD31O,2.300000X1.500000*%
%TD*%
%TA.AperFunction,SMDPad,CuDef*%
%ADD32RoundRect,0.140000X0.140000X0.170000X-0.140000X0.170000X-0.140000X-0.170000X0.140000X-0.170000X0*%
%TD*%
%TA.AperFunction,SMDPad,CuDef*%
%ADD33RoundRect,0.150000X-0.150000X0.825000X-0.150000X-0.825000X0.150000X-0.825000X0.150000X0.825000X0*%
%TD*%
%TA.AperFunction,SMDPad,CuDef*%
%ADD34R,1.100000X0.550000*%
%TD*%
%TA.AperFunction,SMDPad,CuDef*%
%ADD35R,1.100000X0.300000*%
%TD*%
%TA.AperFunction,ComponentPad*%
%ADD36O,2.000000X1.100000*%
%TD*%
%TA.AperFunction,SMDPad,CuDef*%
%ADD37RoundRect,0.375000X-0.375000X0.625000X-0.375000X-0.625000X0.375000X-0.625000X0.375000X0.625000X0*%
%TD*%
%TA.AperFunction,SMDPad,CuDef*%
%ADD38RoundRect,0.500000X-1.400000X0.500000X-1.400000X-0.500000X1.400000X-0.500000X1.400000X0.500000X0*%
%TD*%
%TA.AperFunction,ViaPad*%
%ADD39C,0.350000*%
%TD*%
%TA.AperFunction,ViaPad*%
%ADD40C,0.800000*%
%TD*%
%TA.AperFunction,ViaPad*%
%ADD41C,1.500000*%
%TD*%
%TA.AperFunction,Conductor*%
%ADD42C,0.200000*%
%TD*%
%TA.AperFunction,Conductor*%
%ADD43C,0.800000*%
%TD*%
%TA.AperFunction,Conductor*%
%ADD44C,1.500000*%
%TD*%
%TA.AperFunction,Conductor*%
%ADD45C,0.600000*%
%TD*%
%TA.AperFunction,Conductor*%
%ADD46C,0.120000*%
%TD*%
%TA.AperFunction,Conductor*%
%ADD47C,0.150000*%
%TD*%
%TA.AperFunction,Conductor*%
%ADD48C,0.300000*%
%TD*%
G04 APERTURE END LIST*
D10*
%TO.P,D2,1,K*%
%TO.N,Net-(A1-VSYS)*%
X144075000Y-76798667D03*
%TO.P,D2,2,A*%
%TO.N,+5V*%
X144075000Y-78198667D03*
%TD*%
D11*
%TO.P,R1,1*%
%TO.N,GND*%
X143825000Y-81848667D03*
%TO.P,R1,2*%
%TO.N,Net-(J2-CC1)*%
X144325000Y-81848667D03*
%TD*%
D12*
%TO.P,J5,1*%
%TO.N,/ML0_P*%
X139532200Y-108400000D03*
%TO.P,J5,2*%
%TO.N,GND*%
X139532200Y-108900000D03*
%TO.P,J5,3*%
%TO.N,/ML0_N*%
X139532200Y-109400000D03*
%TO.P,J5,4*%
%TO.N,/ML1_P*%
X139532200Y-109900000D03*
%TO.P,J5,5*%
%TO.N,GND*%
X139532200Y-110400000D03*
%TO.P,J5,6*%
%TO.N,/ML1_N*%
X139532200Y-110900000D03*
%TO.P,J5,7*%
%TO.N,/ML2_P*%
X139532200Y-111400000D03*
%TO.P,J5,8*%
%TO.N,GND*%
X139532200Y-111900000D03*
%TO.P,J5,9*%
%TO.N,/ML2_N*%
X139532200Y-112400000D03*
%TO.P,J5,10*%
%TO.N,/ML3_P*%
X139532200Y-112900000D03*
%TO.P,J5,11*%
%TO.N,GND*%
X139532200Y-113400000D03*
%TO.P,J5,12*%
%TO.N,/ML3_N*%
X139532200Y-113900000D03*
%TO.P,J5,13*%
%TO.N,Net-(J5-Pad13)*%
X139532200Y-114400000D03*
%TO.P,J5,14*%
%TO.N,Net-(J5-Pad14)*%
X139532200Y-114900000D03*
%TO.P,J5,15*%
%TO.N,/AUX_P*%
X139532200Y-115400000D03*
%TO.P,J5,16*%
%TO.N,GND*%
X139532200Y-115900000D03*
%TO.P,J5,17*%
%TO.N,/AUX_N*%
X139532200Y-116400000D03*
%TO.P,J5,18*%
%TO.N,Net-(J5-Pad18)*%
X139532200Y-116900000D03*
%TO.P,J5,19*%
%TO.N,Net-(J5-Pad19)*%
X139532200Y-117400000D03*
%TO.P,J5,20*%
%TO.N,unconnected-(J5-Pad20)*%
X139532200Y-117900000D03*
D13*
%TO.P,J5,21*%
%TO.N,GND*%
X142128200Y-122155000D03*
%TO.P,J5,22*%
X142128200Y-105645000D03*
D14*
%TO.P,J5,23*%
X148910000Y-122155000D03*
%TO.P,J5,24*%
X148910000Y-105645000D03*
%TD*%
D15*
%TO.P,D1,1,A1*%
%TO.N,GND*%
X144075000Y-84400000D03*
%TO.P,D1,2,A2*%
%TO.N,+5V*%
X144075000Y-83000000D03*
%TD*%
D16*
%TO.P,J3,1,Pin_1*%
%TO.N,/SCL*%
X102300000Y-77850000D03*
D17*
%TO.P,J3,2,Pin_2*%
%TO.N,/SDA*%
X102300000Y-80390000D03*
%TO.P,J3,3,Pin_3*%
%TO.N,GND*%
X102300000Y-82930000D03*
%TD*%
D18*
%TO.P,R3,1*%
%TO.N,/AUX_RE*%
X128895000Y-94500000D03*
%TO.P,R3,2*%
%TO.N,GND*%
X129915000Y-94500000D03*
%TD*%
D16*
%TO.P,J4,1,Pin_1*%
%TO.N,/AUX_P*%
X102300000Y-119875000D03*
D17*
%TO.P,J4,2,Pin_2*%
%TO.N,/AUX_N*%
X102300000Y-122415000D03*
%TD*%
D19*
%TO.P,C2,1*%
%TO.N,+3V3*%
X129405000Y-104880000D03*
%TO.P,C2,2*%
%TO.N,GND*%
X129405000Y-105840000D03*
%TD*%
D20*
%TO.P,A1,*%
%TO.N,*%
X151550000Y-59815000D03*
D21*
X148520000Y-60115000D03*
X148520000Y-64965000D03*
D20*
X151550000Y-65265000D03*
D22*
%TO.P,A1,1,GPIO0*%
%TO.N,unconnected-(A1-GPIO0-Pad1)*%
X151680000Y-52850000D03*
D23*
%TO.P,A1,2,GPIO1*%
%TO.N,unconnected-(A1-GPIO1-Pad2)*%
X149140000Y-52850000D03*
D24*
%TO.P,A1,3,GND*%
%TO.N,GND*%
X146600000Y-52850000D03*
D23*
%TO.P,A1,4,GPIO2*%
%TO.N,unconnected-(A1-GPIO2-Pad4)*%
X144060000Y-52850000D03*
%TO.P,A1,5,GPIO3*%
%TO.N,unconnected-(A1-GPIO3-Pad5)*%
X141520000Y-52850000D03*
%TO.P,A1,6,GPIO4*%
%TO.N,/SDA*%
X138980000Y-52850000D03*
%TO.P,A1,7,GPIO5*%
%TO.N,/SCL*%
X136440000Y-52850000D03*
D24*
%TO.P,A1,8,GND*%
%TO.N,GND*%
X133900000Y-52850000D03*
D23*
%TO.P,A1,9,GPIO6*%
%TO.N,/AUX_R*%
X131360000Y-52850000D03*
%TO.P,A1,10,GPIO7*%
%TO.N,/AUX_RE*%
X128820000Y-52850000D03*
%TO.P,A1,11,GPIO8*%
%TO.N,/AUX_DE*%
X126280000Y-52850000D03*
%TO.P,A1,12,GPIO9*%
%TO.N,/AUX_D*%
X123740000Y-52850000D03*
D24*
%TO.P,A1,13,GND*%
%TO.N,GND*%
X121200000Y-52850000D03*
D23*
%TO.P,A1,14,GPIO10*%
%TO.N,unconnected-(A1-GPIO10-Pad14)*%
X118660000Y-52850000D03*
%TO.P,A1,15,GPIO11*%
%TO.N,unconnected-(A1-GPIO11-Pad15)*%
X116120000Y-52850000D03*
%TO.P,A1,16,GPIO12*%
%TO.N,unconnected-(A1-GPIO12-Pad16)*%
X113580000Y-52850000D03*
%TO.P,A1,17,GPIO13*%
%TO.N,unconnected-(A1-GPIO13-Pad17)*%
X111040000Y-52850000D03*
D24*
%TO.P,A1,18,GND*%
%TO.N,GND*%
X108500000Y-52850000D03*
D23*
%TO.P,A1,19,GPIO14*%
%TO.N,unconnected-(A1-GPIO14-Pad19)*%
X105960000Y-52850000D03*
%TO.P,A1,20,GPIO15*%
%TO.N,unconnected-(A1-GPIO15-Pad20)*%
X103420000Y-52850000D03*
%TO.P,A1,21,GPIO16*%
%TO.N,unconnected-(A1-GPIO16-Pad21)*%
X103420000Y-72230000D03*
%TO.P,A1,22,GPIO17*%
%TO.N,unconnected-(A1-GPIO17-Pad22)*%
X105960000Y-72230000D03*
D22*
%TO.P,A1,23,GND*%
%TO.N,GND*%
X108500000Y-72230000D03*
D23*
%TO.P,A1,24,GPIO18*%
%TO.N,unconnected-(A1-GPIO18-Pad24)*%
X111040000Y-72230000D03*
%TO.P,A1,25,GPIO19*%
%TO.N,unconnected-(A1-GPIO19-Pad25)*%
X113580000Y-72230000D03*
%TO.P,A1,26,GPIO20*%
%TO.N,unconnected-(A1-GPIO20-Pad26)*%
X116120000Y-72230000D03*
%TO.P,A1,27,GPIO21*%
%TO.N,unconnected-(A1-GPIO21-Pad27)*%
X118660000Y-72230000D03*
D22*
%TO.P,A1,28,GND*%
%TO.N,GND*%
X121200000Y-72230000D03*
D23*
%TO.P,A1,29,GPIO22*%
%TO.N,unconnected-(A1-GPIO22-Pad29)*%
X123740000Y-72230000D03*
%TO.P,A1,30,RUN*%
%TO.N,unconnected-(A1-RUN-Pad30)*%
X126280000Y-72230000D03*
%TO.P,A1,31,GPIO26_ADC0*%
%TO.N,unconnected-(A1-GPIO26_ADC0-Pad31)*%
X128820000Y-72230000D03*
%TO.P,A1,32,GPIO27_ADC1*%
%TO.N,unconnected-(A1-GPIO27_ADC1-Pad32)*%
X131360000Y-72230000D03*
D22*
%TO.P,A1,33,AGND*%
%TO.N,GND*%
X133900000Y-72230000D03*
D23*
%TO.P,A1,34,GPIO28_ADC2*%
%TO.N,unconnected-(A1-GPIO28_ADC2-Pad34)*%
X136440000Y-72230000D03*
%TO.P,A1,35,ADC_VREF*%
%TO.N,unconnected-(A1-ADC_VREF-Pad35)*%
X138980000Y-72230000D03*
%TO.P,A1,36,3V3*%
%TO.N,unconnected-(A1-3V3-Pad36)*%
X141520000Y-72230000D03*
%TO.P,A1,37,3V3_EN*%
%TO.N,unconnected-(A1-3V3_EN-Pad37)*%
X144060000Y-72230000D03*
D22*
%TO.P,A1,38,GND*%
%TO.N,GND*%
X146600000Y-72230000D03*
D23*
%TO.P,A1,39,VSYS*%
%TO.N,Net-(A1-VSYS)*%
X149140000Y-72230000D03*
%TO.P,A1,40,VBUS*%
%TO.N,unconnected-(A1-VBUS-Pad40)*%
X151680000Y-72230000D03*
D25*
%TO.P,A1,D1,SWCLK*%
%TO.N,unconnected-(A1-SWCLK-PadD1)*%
X102850000Y-60000000D03*
D26*
%TO.P,A1,D2,GND*%
%TO.N,GND*%
X103650000Y-62540000D03*
D25*
%TO.P,A1,D3,SWDIO*%
%TO.N,unconnected-(A1-SWDIO-PadD3)*%
X102850000Y-65080000D03*
D27*
%TO.P,A1,TP1,USB_GND*%
%TO.N,GND*%
X148550000Y-62540000D03*
%TO.P,A1,TP2,USB_DM*%
%TO.N,/USB_DN*%
X151850000Y-63540000D03*
%TO.P,A1,TP3,USB_DP*%
%TO.N,/USB_DP*%
X151850000Y-61540000D03*
%TO.P,A1,TP4,~{SMPS_PS}*%
%TO.N,unconnected-(A1-~{SMPS_PS}-PadTP4)*%
X145050000Y-60040000D03*
%TO.P,A1,TP5,LED_OUT*%
%TO.N,unconnected-(A1-LED_OUT-PadTP5)*%
X142550000Y-60040000D03*
%TO.P,A1,TP6,~{BOOTSEL}*%
%TO.N,unconnected-(A1-~{BOOTSEL}-PadTP6)*%
X140050000Y-60040000D03*
%TD*%
D11*
%TO.P,R2,1*%
%TO.N,GND*%
X143825000Y-79348974D03*
%TO.P,R2,2*%
%TO.N,Net-(J2-CC2)*%
X144325000Y-79348974D03*
%TD*%
D16*
%TO.P,J1,1,Pin_1*%
%TO.N,/AUX_R*%
X102300000Y-87968000D03*
D17*
%TO.P,J1,2,Pin_2*%
%TO.N,/AUX_RE*%
X102300000Y-90508000D03*
%TO.P,J1,3,Pin_3*%
%TO.N,/AUX_DE*%
X102300000Y-93048000D03*
%TO.P,J1,4,Pin_4*%
%TO.N,/AUX_D*%
X102300000Y-95588000D03*
%TD*%
D28*
%TO.P,C1,1*%
%TO.N,+5V*%
X144325000Y-80598667D03*
%TO.P,C1,2*%
%TO.N,GND*%
X143825000Y-80598667D03*
%TD*%
D29*
%TO.P,J7,1,D2+*%
%TO.N,unconnected-(J7-D2+-Pad1)*%
X142920000Y-90766667D03*
%TO.P,J7,2,D2S*%
%TO.N,unconnected-(J7-D2S-Pad2)*%
X142920000Y-91266667D03*
%TO.P,J7,3,D2-*%
%TO.N,unconnected-(J7-D2--Pad3)*%
X142920000Y-91766667D03*
%TO.P,J7,4,D1+*%
%TO.N,unconnected-(J7-D1+-Pad4)*%
X142920000Y-92266667D03*
%TO.P,J7,5,D1S*%
%TO.N,unconnected-(J7-D1S-Pad5)*%
X142920000Y-92766667D03*
%TO.P,J7,6,D1-*%
%TO.N,unconnected-(J7-D1--Pad6)*%
X142920000Y-93266667D03*
%TO.P,J7,7,D0+*%
%TO.N,unconnected-(J7-D0+-Pad7)*%
X142920000Y-93766667D03*
%TO.P,J7,8,D0S*%
%TO.N,unconnected-(J7-D0S-Pad8)*%
X142920000Y-94266667D03*
%TO.P,J7,9,D0-*%
%TO.N,unconnected-(J7-D0--Pad9)*%
X142920000Y-94766667D03*
%TO.P,J7,10,CK+*%
%TO.N,unconnected-(J7-CK+-Pad10)*%
X142920000Y-95266667D03*
%TO.P,J7,11,CKS*%
%TO.N,unconnected-(J7-CKS-Pad11)*%
X142920000Y-95766667D03*
%TO.P,J7,12,CK-*%
%TO.N,unconnected-(J7-CK--Pad12)*%
X142920000Y-96266667D03*
%TO.P,J7,13,CEC*%
%TO.N,unconnected-(J7-CEC-Pad13)*%
X142920000Y-96766667D03*
%TO.P,J7,14,UTILITY/HEAC+*%
%TO.N,unconnected-(J7-UTILITY{slash}HEAC+-Pad14)*%
X142920000Y-97266667D03*
%TO.P,J7,15,SCL*%
%TO.N,/SCL*%
X142920000Y-97766667D03*
%TO.P,J7,16,SDA*%
%TO.N,/SDA*%
X142920000Y-98266667D03*
%TO.P,J7,17,GND*%
%TO.N,GND*%
X142920000Y-98766667D03*
%TO.P,J7,18,+5V*%
%TO.N,unconnected-(J7-+5V-Pad18)*%
X142920000Y-99266667D03*
%TO.P,J7,19,HPD/HEAC-*%
%TO.N,unconnected-(J7-HPD{slash}HEAC--Pad19)*%
X142920000Y-99766667D03*
D30*
%TO.P,J7,SH,SH*%
%TO.N,GND*%
X143680000Y-102516667D03*
D31*
X149680000Y-102516667D03*
D30*
X143680000Y-88016667D03*
D31*
X149680000Y-88016667D03*
%TD*%
D32*
%TO.P,C3,1*%
%TO.N,+5V*%
X133410000Y-81200000D03*
%TO.P,C3,2*%
%TO.N,GND*%
X132450000Y-81200000D03*
%TD*%
D33*
%TO.P,U1,1,R*%
%TO.N,/AUX_R*%
X129405000Y-97525000D03*
%TO.P,U1,2,~{RE}*%
%TO.N,/AUX_RE*%
X128135000Y-97525000D03*
%TO.P,U1,3,DE*%
%TO.N,/AUX_DE*%
X126865000Y-97525000D03*
%TO.P,U1,4,D*%
%TO.N,/AUX_D*%
X125595000Y-97525000D03*
%TO.P,U1,5,GND*%
%TO.N,GND*%
X125595000Y-102475000D03*
%TO.P,U1,6,A*%
%TO.N,/AUX_P*%
X126865000Y-102475000D03*
%TO.P,U1,7,B*%
%TO.N,/AUX_N*%
X128135000Y-102475000D03*
%TO.P,U1,8,VCC*%
%TO.N,+3V3*%
X129405000Y-102475000D03*
%TD*%
D12*
%TO.P,J6,1*%
%TO.N,/ML3_N*%
X114767800Y-113900000D03*
%TO.P,J6,2*%
%TO.N,GND*%
X114767800Y-113400000D03*
%TO.P,J6,3*%
%TO.N,/ML3_P*%
X114767800Y-112900000D03*
%TO.P,J6,4*%
%TO.N,/ML2_N*%
X114767800Y-112400000D03*
%TO.P,J6,5*%
%TO.N,GND*%
X114767800Y-111900000D03*
%TO.P,J6,6*%
%TO.N,/ML2_P*%
X114767800Y-111400000D03*
%TO.P,J6,7*%
%TO.N,/ML1_N*%
X114767800Y-110900000D03*
%TO.P,J6,8*%
%TO.N,GND*%
X114767800Y-110400000D03*
%TO.P,J6,9*%
%TO.N,/ML1_P*%
X114767800Y-109900000D03*
%TO.P,J6,10*%
%TO.N,/ML0_N*%
X114767800Y-109400000D03*
%TO.P,J6,11*%
%TO.N,GND*%
X114767800Y-108900000D03*
%TO.P,J6,12*%
%TO.N,/ML0_P*%
X114767800Y-108400000D03*
%TO.P,J6,13*%
%TO.N,Net-(J5-Pad13)*%
X114767800Y-107900000D03*
%TO.P,J6,14*%
%TO.N,Net-(J5-Pad14)*%
X114767800Y-107400000D03*
%TO.P,J6,15*%
%TO.N,/AUX_P*%
X114767800Y-106900000D03*
%TO.P,J6,16*%
%TO.N,GND*%
X114767800Y-106400000D03*
%TO.P,J6,17*%
%TO.N,/AUX_N*%
X114767800Y-105900000D03*
%TO.P,J6,18*%
%TO.N,Net-(J5-Pad18)*%
X114767800Y-105400000D03*
%TO.P,J6,19*%
%TO.N,Net-(J5-Pad19)*%
X114767800Y-104900000D03*
%TO.P,J6,20*%
%TO.N,unconnected-(J6-Pad20)*%
X114767800Y-104400000D03*
D13*
%TO.P,J6,21*%
%TO.N,GND*%
X112171800Y-100145000D03*
%TO.P,J6,22*%
X112171800Y-116655000D03*
D14*
%TO.P,J6,23*%
X105390000Y-100145000D03*
%TO.P,J6,24*%
X105390000Y-116655000D03*
%TD*%
D34*
%TO.P,J2,A1,GND*%
%TO.N,GND*%
X146825000Y-83798667D03*
X146825000Y-77398667D03*
%TO.P,J2,A4,VBUS*%
%TO.N,+5V*%
X146825000Y-82998667D03*
X146825000Y-78198667D03*
D35*
%TO.P,J2,A5,CC1*%
%TO.N,Net-(J2-CC1)*%
X146825000Y-81848667D03*
%TO.P,J2,A6,D+*%
%TO.N,/USB_DP*%
X146825000Y-80848667D03*
%TO.P,J2,A7,D-*%
%TO.N,/USB_DN*%
X146825000Y-80348667D03*
%TO.P,J2,A8,SBU1*%
%TO.N,unconnected-(J2-SBU1-PadA8)*%
X146825000Y-79348667D03*
%TO.P,J2,B5,CC2*%
%TO.N,Net-(J2-CC2)*%
X146825000Y-78848667D03*
%TO.P,J2,B6,D+*%
%TO.N,/USB_DP*%
X146825000Y-79848667D03*
%TO.P,J2,B7,D-*%
%TO.N,/USB_DN*%
X146825000Y-81348667D03*
%TO.P,J2,B8,SBU2*%
%TO.N,unconnected-(J2-SBU2-PadB8)*%
X146825000Y-82348667D03*
D36*
%TO.P,J2,S1,SHIELD*%
%TO.N,GND*%
X147375000Y-84923667D03*
D14*
X151575000Y-84923667D03*
D36*
X147375000Y-76273667D03*
D14*
X151575000Y-76273667D03*
%TD*%
D32*
%TO.P,C4,1*%
%TO.N,+3V3*%
X134560000Y-91892667D03*
%TO.P,C4,2*%
%TO.N,GND*%
X133600000Y-91892667D03*
%TD*%
D37*
%TO.P,U2,1,GND*%
%TO.N,GND*%
X138480000Y-83282667D03*
%TO.P,U2,2,VO*%
%TO.N,+3V3*%
X136180000Y-83282667D03*
D38*
X136180000Y-89582667D03*
D37*
%TO.P,U2,3,VI*%
%TO.N,+5V*%
X133880000Y-83282667D03*
%TD*%
D39*
%TO.N,GND*%
X137838400Y-113400000D03*
X116461600Y-108900000D03*
D40*
X133900000Y-56850000D03*
X146600000Y-69430000D03*
D39*
X131680000Y-81200000D03*
X143001333Y-80598667D03*
D40*
X121200000Y-56850000D03*
D39*
X144075000Y-85700000D03*
D40*
X105650000Y-62540000D03*
D39*
X116461600Y-113400000D03*
D40*
X108500000Y-56850000D03*
D39*
X125595000Y-104185000D03*
D40*
X121200000Y-55650000D03*
D39*
X137838400Y-108900000D03*
D40*
X121200000Y-69430000D03*
D39*
X129405000Y-106610000D03*
X116461600Y-110400000D03*
X145825000Y-83798667D03*
D40*
X146650000Y-62540000D03*
D39*
X116461600Y-111900000D03*
D40*
X108500000Y-68230000D03*
X146600000Y-55650000D03*
D39*
X132830000Y-91892667D03*
X130685000Y-94500000D03*
X143055000Y-79348974D03*
D41*
X138480000Y-80282667D03*
D39*
X137838400Y-110400000D03*
X116461600Y-106400000D03*
X143055000Y-81848667D03*
D40*
X121200000Y-68230000D03*
X133900000Y-55650000D03*
D39*
X145835000Y-77398667D03*
D40*
X108500000Y-69430000D03*
X133900000Y-69430000D03*
X108500000Y-55650000D03*
X145450000Y-62540000D03*
X106850000Y-62540000D03*
X146600000Y-68230000D03*
D39*
X137838400Y-115900000D03*
D40*
X133900000Y-68230000D03*
D39*
X137838400Y-111900000D03*
X141120000Y-98766667D03*
D40*
X146600000Y-56850000D03*
D39*
%TO.N,/SDA*%
X118660000Y-60814000D03*
X133900000Y-60814000D03*
X140620000Y-98016667D03*
X138980000Y-55450000D03*
X138980000Y-66450000D03*
%TO.N,/AUX_D*%
X125595000Y-95550000D03*
X123740000Y-55450000D03*
%TO.N,/USB_DP*%
X148325000Y-79848667D03*
X149925000Y-61540000D03*
X147775000Y-79848667D03*
X147775000Y-80848667D03*
%TO.N,/SCL*%
X141120000Y-67590000D03*
X141120000Y-97516667D03*
X116120000Y-59144000D03*
%TO.N,/AUX_R*%
X131360000Y-55450000D03*
X129405000Y-95550000D03*
%TO.N,/AUX_DE*%
X126280000Y-55450000D03*
X126865000Y-95600000D03*
%TO.N,/AUX_RE*%
X128820000Y-55450000D03*
X128135000Y-95550000D03*
%TO.N,Net-(J2-CC1)*%
X147775000Y-81848667D03*
X144325000Y-81223667D03*
%TO.N,Net-(J2-CC2)*%
X147775000Y-78848667D03*
X144325000Y-79973974D03*
%TO.N,/AUX_N*%
X116961600Y-105900000D03*
X124961600Y-116560000D03*
%TO.N,Net-(J5-Pad19)*%
X129461600Y-116900000D03*
X116961600Y-104900000D03*
%TO.N,Net-(J5-Pad18)*%
X116461600Y-105400000D03*
X130461600Y-116900000D03*
%TO.N,/AUX_P*%
X124340000Y-106065000D03*
X116961600Y-106900000D03*
X123020000Y-106735000D03*
X124141600Y-116560000D03*
%TO.N,Net-(J5-Pad14)*%
X119461600Y-114399732D03*
X117461600Y-107400000D03*
%TO.N,Net-(J5-Pad13)*%
X116961600Y-107900000D03*
X120461600Y-114400000D03*
%TO.N,/USB_DN*%
X150275000Y-63540000D03*
X148325000Y-81348667D03*
%TD*%
D42*
%TO.N,GND*%
X129405000Y-105840000D02*
X129405000Y-106610000D01*
X139532200Y-115900000D02*
X137838400Y-115900000D01*
D43*
X108500000Y-52850000D02*
X108500000Y-56850000D01*
D42*
X144075000Y-84400000D02*
X144075000Y-85700000D01*
D44*
X138480000Y-83282667D02*
X138480000Y-80282667D01*
D43*
X121200000Y-72230000D02*
X121200000Y-68230000D01*
X148550000Y-62540000D02*
X145450000Y-62540000D01*
D42*
X114767800Y-113400000D02*
X116461600Y-113400000D01*
X129915000Y-94500000D02*
X130685000Y-94500000D01*
X139532200Y-110400000D02*
X137838400Y-110400000D01*
X142920000Y-98766667D02*
X141120000Y-98766667D01*
X139532200Y-113400000D02*
X137838400Y-113400000D01*
X143825000Y-80598667D02*
X143001333Y-80598667D01*
D43*
X146600000Y-72230000D02*
X146600000Y-68230000D01*
D42*
X114767800Y-108900000D02*
X116461600Y-108900000D01*
X146825000Y-83798667D02*
X145825000Y-83798667D01*
X139532200Y-108900000D02*
X137838400Y-108900000D01*
X114767800Y-111900000D02*
X116461600Y-111900000D01*
X143825000Y-81848667D02*
X143055000Y-81848667D01*
D43*
X103650000Y-62540000D02*
X106850000Y-62540000D01*
D42*
X125595000Y-102475000D02*
X125595000Y-104185000D01*
X114767800Y-110400000D02*
X116461600Y-110400000D01*
D43*
X146600000Y-52850000D02*
X146600000Y-56850000D01*
X133900000Y-52850000D02*
X133900000Y-56850000D01*
X121200000Y-52850000D02*
X121200000Y-56850000D01*
D42*
X133600000Y-91892667D02*
X132830000Y-91892667D01*
X114767800Y-106400000D02*
X116461600Y-106400000D01*
D43*
X108500000Y-72230000D02*
X108500000Y-68230000D01*
D42*
X146825000Y-77398667D02*
X145835000Y-77398667D01*
X132450000Y-81200000D02*
X131680000Y-81200000D01*
D43*
X133900000Y-72230000D02*
X133900000Y-68230000D01*
D42*
X143825000Y-79348974D02*
X143055000Y-79348974D01*
X139532200Y-111900000D02*
X137838400Y-111900000D01*
%TO.N,/SDA*%
X118660000Y-60814000D02*
X133900000Y-60814000D01*
X142920000Y-98266667D02*
X140870000Y-98266667D01*
X138980000Y-52850000D02*
X138980000Y-55450000D01*
X140870000Y-98266667D02*
X140620000Y-98016667D01*
D45*
%TO.N,Net-(A1-VSYS)*%
X149140000Y-72230000D02*
X149140000Y-74577500D01*
X148890000Y-74827500D02*
X144325000Y-74827500D01*
X149140000Y-74577500D02*
X148890000Y-74827500D01*
X144325000Y-74827500D02*
X144075000Y-75077500D01*
X144075000Y-76798667D02*
X144075000Y-75077500D01*
D46*
%TO.N,/AUX_D*%
X123740000Y-52850000D02*
X123740000Y-55450000D01*
X102300000Y-95588000D02*
X125557000Y-95588000D01*
X125595000Y-97525000D02*
X125595000Y-95550000D01*
X125557000Y-95588000D02*
X125595000Y-95550000D01*
D47*
%TO.N,/USB_DP*%
X151850000Y-61540000D02*
X149925000Y-61540000D01*
X147775000Y-79848667D02*
X148325000Y-79848667D01*
X146825000Y-79848667D02*
X147775000Y-79848667D01*
X146825000Y-80848667D02*
X147775000Y-80848667D01*
D42*
%TO.N,/SCL*%
X142920000Y-97766667D02*
X141370000Y-97766667D01*
X136440000Y-52850000D02*
X136440000Y-62910000D01*
X133900000Y-59144000D02*
X136440000Y-56604000D01*
X116120000Y-59144000D02*
X133900000Y-59144000D01*
X141120000Y-67590000D02*
X136440000Y-62910000D01*
X141370000Y-97766667D02*
X141120000Y-97516667D01*
D46*
%TO.N,/AUX_R*%
X128905000Y-87968000D02*
X102300000Y-87968000D01*
X131360000Y-52850000D02*
X131360000Y-55450000D01*
X129405000Y-95550000D02*
X129405000Y-88468000D01*
X129405000Y-97525000D02*
X129405000Y-95550000D01*
X129405000Y-88468000D02*
X128905000Y-87968000D01*
%TO.N,/AUX_DE*%
X126365000Y-93048000D02*
X102300000Y-93048000D01*
X126865000Y-95600000D02*
X126865000Y-93548000D01*
X126865000Y-95600000D02*
X126865000Y-95550000D01*
X126865000Y-93548000D02*
X126365000Y-93048000D01*
X126280000Y-52850000D02*
X126280000Y-55450000D01*
X126865000Y-97525000D02*
X126865000Y-95600000D01*
%TO.N,/AUX_RE*%
X128135000Y-95550000D02*
X128135000Y-94500000D01*
X128135000Y-91008000D02*
X127635000Y-90508000D01*
X128820000Y-52850000D02*
X128820000Y-55450000D01*
X127635000Y-90508000D02*
X102300000Y-90508000D01*
X128135000Y-97525000D02*
X128135000Y-95550000D01*
X128135000Y-94500000D02*
X128135000Y-91008000D01*
X128895000Y-94500000D02*
X128135000Y-94500000D01*
D45*
%TO.N,+3V3*%
X129405000Y-104000000D02*
X129405000Y-104880000D01*
X135680000Y-104075000D02*
X136180000Y-103575000D01*
D42*
X136172667Y-91892667D02*
X136180000Y-91900000D01*
D45*
X129405000Y-104075000D02*
X135680000Y-104075000D01*
D44*
X136180000Y-83282667D02*
X136180000Y-89582667D01*
X136180000Y-89582667D02*
X136180000Y-91900000D01*
D45*
X136180000Y-91900000D02*
X136180000Y-103575000D01*
X129405000Y-102475000D02*
X129405000Y-104000000D01*
X134560000Y-91892667D02*
X136172667Y-91892667D01*
D42*
%TO.N,+5V*%
X144076333Y-82998667D02*
X144075000Y-83000000D01*
X133410000Y-81200000D02*
X133880000Y-81200000D01*
D44*
X133880000Y-81200000D02*
X133880000Y-78698667D01*
D45*
X146825000Y-82998667D02*
X145200000Y-82998667D01*
X134380000Y-78198667D02*
X144075000Y-78198667D01*
X145200000Y-78198667D02*
X144075000Y-78198667D01*
X145200000Y-82998667D02*
X144076333Y-82998667D01*
X145000000Y-82998667D02*
X145000000Y-80600000D01*
X146825000Y-78198667D02*
X145200000Y-78198667D01*
D44*
X133880000Y-83282667D02*
X133880000Y-81200000D01*
D48*
X144325000Y-80598667D02*
X144998667Y-80598667D01*
D44*
X133880000Y-78698667D02*
X134380000Y-78198667D01*
D42*
X145198667Y-80598667D02*
X145200000Y-80600000D01*
D45*
X145000000Y-80600000D02*
X145000000Y-78198667D01*
D42*
%TO.N,Net-(J2-CC1)*%
X146825000Y-81848667D02*
X147775000Y-81848667D01*
X144325000Y-81848667D02*
X144325000Y-81223667D01*
%TO.N,Net-(J2-CC2)*%
X146825000Y-78848667D02*
X147775000Y-78848667D01*
X144325000Y-79348974D02*
X144325000Y-79973974D01*
D46*
%TO.N,/ML3_N*%
X117301600Y-113560000D02*
X116961600Y-113900000D01*
X136994440Y-113560000D02*
X137334440Y-113900000D01*
X114767800Y-113900000D02*
X116961600Y-113900000D01*
X117301600Y-113560000D02*
X136994440Y-113560000D01*
X139532200Y-113900000D02*
X137334440Y-113900000D01*
%TO.N,/ML2_N*%
X117301600Y-112060000D02*
X136998400Y-112060000D01*
X136998400Y-112060000D02*
X137338400Y-112400000D01*
X139532200Y-112400000D02*
X137338400Y-112400000D01*
X116961600Y-112400000D02*
X114767800Y-112400000D01*
X117301600Y-112060000D02*
X116961600Y-112400000D01*
%TO.N,/AUX_N*%
X114767800Y-105900000D02*
X116961600Y-105900000D01*
X125461600Y-116060000D02*
X124961600Y-116560000D01*
X103575001Y-122415000D02*
X104685001Y-121305000D01*
X139532200Y-116400000D02*
X137334311Y-116400000D01*
X128135000Y-102475000D02*
X128135000Y-103937501D01*
X117301600Y-106240000D02*
X116961600Y-105900000D01*
X123880000Y-106561000D02*
X123559000Y-106240000D01*
X127159000Y-106561000D02*
X123880000Y-106561000D01*
X104685001Y-121305000D02*
X124211600Y-121305000D01*
X124961600Y-116560000D02*
X124711600Y-116810000D01*
X124711600Y-120805000D02*
X124211600Y-121305000D01*
X127660000Y-106060000D02*
X127159000Y-106561000D01*
X123559000Y-106240000D02*
X117301600Y-106240000D01*
X137334311Y-116400000D02*
X136994311Y-116060000D01*
X127660000Y-104412501D02*
X127660000Y-106060000D01*
X136994311Y-116060000D02*
X125461600Y-116060000D01*
X102300000Y-122415000D02*
X103575001Y-122415000D01*
X128135000Y-103937501D02*
X127660000Y-104412501D01*
X124711600Y-116810000D02*
X124711600Y-120805000D01*
%TO.N,/ML0_P*%
X117301600Y-108740000D02*
X116961600Y-108400000D01*
X116961600Y-108400000D02*
X114767800Y-108400000D01*
X139532200Y-108400000D02*
X137338400Y-108400000D01*
X137338400Y-108400000D02*
X136998400Y-108740000D01*
X136998400Y-108740000D02*
X117301600Y-108740000D01*
D42*
%TO.N,Net-(J5-Pad19)*%
X114767800Y-104900000D02*
X116961600Y-104900000D01*
X129961600Y-117400000D02*
X129461600Y-116900000D01*
X139532200Y-117400000D02*
X129961600Y-117400000D01*
D46*
%TO.N,/ML2_P*%
X117301600Y-111740000D02*
X136998400Y-111740000D01*
X116961600Y-111400000D02*
X114767800Y-111400000D01*
X139532200Y-111400000D02*
X137338400Y-111400000D01*
X136998400Y-111740000D02*
X137338400Y-111400000D01*
X117301600Y-111740000D02*
X116961600Y-111400000D01*
%TO.N,/ML1_N*%
X137338400Y-110900000D02*
X136998400Y-110560000D01*
X139532200Y-110900000D02*
X137338400Y-110900000D01*
X117301600Y-110560000D02*
X116961600Y-110900000D01*
X116961600Y-110900000D02*
X114767800Y-110900000D01*
X136998400Y-110560000D02*
X117301600Y-110560000D01*
D42*
%TO.N,Net-(J5-Pad18)*%
X114767800Y-105400000D02*
X116461600Y-105400000D01*
X139532200Y-116900000D02*
X130461600Y-116900000D01*
D46*
%TO.N,/ML0_N*%
X137338400Y-109400000D02*
X136998400Y-109060000D01*
X116961600Y-109400000D02*
X114767800Y-109400000D01*
X136998400Y-109060000D02*
X117301600Y-109060000D01*
X117301600Y-109060000D02*
X116961600Y-109400000D01*
X139532200Y-109400000D02*
X137338400Y-109400000D01*
%TO.N,/AUX_P*%
X127340000Y-105740000D02*
X126840000Y-106240000D01*
X117301600Y-106560000D02*
X122845000Y-106560000D01*
X124141600Y-116560000D02*
X124391600Y-116810000D01*
X127340000Y-104412501D02*
X127340000Y-105740000D01*
X124961600Y-115740000D02*
X124141600Y-116560000D01*
X116961600Y-106900000D02*
X117301600Y-106560000D01*
X102300000Y-119875000D02*
X103575001Y-119875000D01*
X123891600Y-120985000D02*
X124391600Y-120485000D01*
X126865000Y-102475000D02*
X126865000Y-103937501D01*
X114767800Y-106900000D02*
X116961600Y-106900000D01*
X124515000Y-106240000D02*
X124340000Y-106065000D01*
X124391600Y-116810000D02*
X124391600Y-120485000D01*
X122845000Y-106560000D02*
X123020000Y-106735000D01*
X136994311Y-115740000D02*
X124961600Y-115740000D01*
X126865000Y-103937501D02*
X127340000Y-104412501D01*
X126840000Y-106240000D02*
X124515000Y-106240000D01*
X104685001Y-120985000D02*
X123891600Y-120985000D01*
X103575001Y-119875000D02*
X104685001Y-120985000D01*
X137334311Y-115400000D02*
X136994311Y-115740000D01*
X139532200Y-115400000D02*
X137334311Y-115400000D01*
D42*
%TO.N,Net-(J5-Pad14)*%
X119461600Y-114399732D02*
X119961600Y-114899732D01*
X137338400Y-114900000D02*
X137338400Y-114899732D01*
X139532200Y-114900000D02*
X137338400Y-114900000D01*
X114767800Y-107400000D02*
X117461600Y-107400000D01*
X119961600Y-114899732D02*
X137338132Y-114899732D01*
X137338132Y-114899732D02*
X137338400Y-114900000D01*
D46*
%TO.N,/ML3_P*%
X117301600Y-113240000D02*
X116961600Y-112900000D01*
X139532200Y-112900000D02*
X137334440Y-112900000D01*
X114767800Y-112900000D02*
X116961600Y-112900000D01*
X117301600Y-113240000D02*
X136994440Y-113240000D01*
X136994440Y-113240000D02*
X137334440Y-112900000D01*
D42*
%TO.N,Net-(J5-Pad13)*%
X114767800Y-107900000D02*
X116961600Y-107900000D01*
X120461600Y-114400000D02*
X139532200Y-114400000D01*
D46*
%TO.N,/ML1_P*%
X136998400Y-110240000D02*
X117301600Y-110240000D01*
X139532200Y-109900000D02*
X137338400Y-109900000D01*
X117301600Y-110240000D02*
X116961600Y-109900000D01*
X116961600Y-109900000D02*
X114767800Y-109900000D01*
X137338400Y-109900000D02*
X136998400Y-110240000D01*
D47*
%TO.N,/USB_DN*%
X145875000Y-81348667D02*
X145675000Y-81148667D01*
X151850000Y-63540000D02*
X150275000Y-63540000D01*
X145675000Y-80548667D02*
X145675000Y-81148667D01*
X145875000Y-80348667D02*
X145675000Y-80548667D01*
X146825000Y-81348667D02*
X148325000Y-81348667D01*
X146825000Y-81348667D02*
X145875000Y-81348667D01*
X146825000Y-80348667D02*
X145875000Y-80348667D01*
%TD*%
%TA.AperFunction,Conductor*%
%TO.N,+3V3*%
G36*
X136808669Y-92209685D02*
G01*
X136854424Y-92262489D01*
X136865556Y-92318292D01*
X136484146Y-103330292D01*
X136462152Y-103396610D01*
X136407796Y-103440510D01*
X136360220Y-103450000D01*
X135999780Y-103450000D01*
X135932741Y-103430315D01*
X135886986Y-103377511D01*
X135875854Y-103330292D01*
X135494444Y-92318292D01*
X135511796Y-92250612D01*
X135562985Y-92203056D01*
X135618370Y-92190000D01*
X136741630Y-92190000D01*
X136808669Y-92209685D01*
G37*
%TD.AperFunction*%
%TD*%
%TA.AperFunction,Conductor*%
%TO.N,+5V*%
G36*
X143108257Y-77830659D02*
G01*
X143174374Y-77853243D01*
X143217787Y-77907988D01*
X143223338Y-77943943D01*
X143227705Y-77948667D01*
X143951000Y-77948667D01*
X144018039Y-77968352D01*
X144063794Y-78021156D01*
X144075000Y-78072667D01*
X144075000Y-78324667D01*
X144055315Y-78391706D01*
X144002511Y-78437461D01*
X143951000Y-78448667D01*
X143227704Y-78448667D01*
X143191609Y-78487713D01*
X143131647Y-78523579D01*
X143103466Y-78527507D01*
X134994105Y-78718024D01*
X134926622Y-78699919D01*
X134879640Y-78648204D01*
X134877080Y-78642578D01*
X134828152Y-78527507D01*
X134446943Y-77630960D01*
X134438827Y-77561565D01*
X134469517Y-77498796D01*
X134529270Y-77462584D01*
X134566454Y-77458558D01*
X143108257Y-77830659D01*
G37*
%TD.AperFunction*%
%TD*%
M02*
