%TF.GenerationSoftware,KiCad,Pcbnew,9.0.1*%
%TF.CreationDate,2025-08-01T22:35:38-04:00*%
%TF.ProjectId,hardwareddc-aux-breakout,68617264-7761-4726-9564-64632d617578,rev?*%
%TF.SameCoordinates,Original*%
%TF.FileFunction,Soldermask,Top*%
%TF.FilePolarity,Negative*%
%FSLAX46Y46*%
G04 Gerber Fmt 4.6, Leading zero omitted, Abs format (unit mm)*
G04 Created by KiCad (PCBNEW 9.0.1) date 2025-08-01 22:35:38*
%MOMM*%
%LPD*%
G01*
G04 APERTURE LIST*
G04 Aperture macros list*
%AMRoundRect*
0 Rectangle with rounded corners*
0 $1 Rounding radius*
0 $2 $3 $4 $5 $6 $7 $8 $9 X,Y pos of 4 corners*
0 Add a 4 corners polygon primitive as box body*
4,1,4,$2,$3,$4,$5,$6,$7,$8,$9,$2,$3,0*
0 Add four circle primitives for the rounded corners*
1,1,$1+$1,$2,$3*
1,1,$1+$1,$4,$5*
1,1,$1+$1,$6,$7*
1,1,$1+$1,$8,$9*
0 Add four rect primitives between the rounded corners*
20,1,$1+$1,$2,$3,$4,$5,0*
20,1,$1+$1,$4,$5,$6,$7,0*
20,1,$1+$1,$6,$7,$8,$9,0*
20,1,$1+$1,$8,$9,$2,$3,0*%
%AMFreePoly0*
4,1,37,0.800000,0.796148,0.878414,0.796148,1.032228,0.765552,1.177117,0.705537,1.307515,0.618408,1.418408,0.507515,1.505537,0.377117,1.565552,0.232228,1.596148,0.078414,1.596148,-0.078414,1.565552,-0.232228,1.505537,-0.377117,1.418408,-0.507515,1.307515,-0.618408,1.177117,-0.705537,1.032228,-0.765552,0.878414,-0.796148,0.800000,-0.796148,0.800000,-0.800000,-1.400000,-0.800000,
-1.403843,-0.796157,-1.439018,-0.796157,-1.511114,-0.766294,-1.566294,-0.711114,-1.596157,-0.639018,-1.596157,-0.603843,-1.600000,-0.600000,-1.600000,0.600000,-1.596157,0.603843,-1.596157,0.639018,-1.566294,0.711114,-1.511114,0.766294,-1.439018,0.796157,-1.403843,0.796157,-1.400000,0.800000,0.800000,0.800000,0.800000,0.796148,0.800000,0.796148,$1*%
%AMFreePoly1*
4,1,37,1.403843,0.796157,1.439018,0.796157,1.511114,0.766294,1.566294,0.711114,1.596157,0.639018,1.596157,0.603843,1.600000,0.600000,1.600000,-0.600000,1.596157,-0.603843,1.596157,-0.639018,1.566294,-0.711114,1.511114,-0.766294,1.439018,-0.796157,1.403843,-0.796157,1.400000,-0.800000,-0.800000,-0.800000,-0.800000,-0.796148,-0.878414,-0.796148,-1.032228,-0.765552,-1.177117,-0.705537,
-1.307515,-0.618408,-1.418408,-0.507515,-1.505537,-0.377117,-1.565552,-0.232228,-1.596148,-0.078414,-1.596148,0.078414,-1.565552,0.232228,-1.505537,0.377117,-1.418408,0.507515,-1.307515,0.618408,-1.177117,0.705537,-1.032228,0.765552,-0.878414,0.796148,-0.800000,0.796148,-0.800000,0.800000,1.400000,0.800000,1.403843,0.796157,1.403843,0.796157,$1*%
%AMFreePoly2*
4,1,37,1.600000,0.796148,1.678414,0.796148,1.832228,0.765552,1.977117,0.705537,2.107515,0.618408,2.218408,0.507515,2.305537,0.377117,2.365552,0.232228,2.396148,0.078414,2.396148,-0.078414,2.365552,-0.232228,2.305537,-0.377117,2.218408,-0.507515,2.107515,-0.618408,1.977117,-0.705537,1.832228,-0.765552,1.678414,-0.796148,1.600000,-0.796148,1.600000,-0.800000,-0.600000,-0.800000,
-0.603843,-0.796157,-0.639018,-0.796157,-0.711114,-0.766294,-0.766294,-0.711114,-0.796157,-0.639018,-0.796157,-0.603843,-0.800000,-0.600000,-0.800000,0.600000,-0.796157,0.603843,-0.796157,0.639018,-0.766294,0.711114,-0.711114,0.766294,-0.639018,0.796157,-0.603843,0.796157,-0.600000,0.800000,1.600000,0.800000,1.600000,0.796148,1.600000,0.796148,$1*%
G04 Aperture macros list end*
%ADD10RoundRect,0.150000X0.200000X-0.150000X0.200000X0.150000X-0.200000X0.150000X-0.200000X-0.150000X0*%
%ADD11RoundRect,0.075000X-0.125000X-0.075000X0.125000X-0.075000X0.125000X0.075000X-0.125000X0.075000X0*%
%ADD12RoundRect,0.050000X1.193800X-0.152400X1.193800X0.152400X-1.193800X0.152400X-1.193800X-0.152400X0*%
%ADD13O,2.504000X1.404000*%
%ADD14O,2.004000X1.404000*%
%ADD15RoundRect,0.150000X-0.200000X0.150000X-0.200000X-0.150000X0.200000X-0.150000X0.200000X0.150000X0*%
%ADD16R,1.700000X1.700000*%
%ADD17C,1.700000*%
%ADD18RoundRect,0.135000X-0.135000X-0.185000X0.135000X-0.185000X0.135000X0.185000X-0.135000X0.185000X0*%
%ADD19RoundRect,0.140000X-0.170000X0.140000X-0.170000X-0.140000X0.170000X-0.140000X0.170000X0.140000X0*%
%ADD20O,1.800000X1.100000*%
%ADD21O,1.450000X1.050000*%
%ADD22FreePoly0,270.000000*%
%ADD23RoundRect,0.800000X-0.000010X0.800000X-0.000010X-0.800000X0.000010X-0.800000X0.000010X0.800000X0*%
%ADD24FreePoly1,270.000000*%
%ADD25RoundRect,0.800000X-0.800000X-0.000010X0.800000X-0.000010X0.800000X0.000010X-0.800000X0.000010X0*%
%ADD26FreePoly2,180.000000*%
%ADD27RoundRect,0.300000X-0.450000X0.450000X-0.450000X-0.450000X0.450000X-0.450000X0.450000X0.450000X0*%
%ADD28RoundRect,0.075000X0.125000X0.075000X-0.125000X0.075000X-0.125000X-0.075000X0.125000X-0.075000X0*%
%ADD29R,2.600000X0.300000*%
%ADD30O,3.300000X1.500000*%
%ADD31O,2.300000X1.500000*%
%ADD32RoundRect,0.140000X0.140000X0.170000X-0.140000X0.170000X-0.140000X-0.170000X0.140000X-0.170000X0*%
%ADD33RoundRect,0.150000X-0.150000X0.825000X-0.150000X-0.825000X0.150000X-0.825000X0.150000X0.825000X0*%
%ADD34RoundRect,0.050000X-1.193800X0.152400X-1.193800X-0.152400X1.193800X-0.152400X1.193800X0.152400X0*%
%ADD35R,1.100000X0.550000*%
%ADD36R,1.100000X0.300000*%
%ADD37O,2.000000X1.100000*%
%ADD38O,1.800000X1.200000*%
%ADD39RoundRect,0.375000X-0.375000X0.625000X-0.375000X-0.625000X0.375000X-0.625000X0.375000X0.625000X0*%
%ADD40RoundRect,0.500000X-1.400000X0.500000X-1.400000X-0.500000X1.400000X-0.500000X1.400000X0.500000X0*%
G04 APERTURE END LIST*
D10*
%TO.C,D2*%
X144075000Y-76798667D03*
X144075000Y-78198667D03*
%TD*%
D11*
%TO.C,R1*%
X143825000Y-81848667D03*
X144325000Y-81848667D03*
%TD*%
D12*
%TO.C,J5*%
X139532200Y-108400000D03*
X139532200Y-108900000D03*
X139532200Y-109400000D03*
X139532200Y-109900000D03*
X139532200Y-110400000D03*
X139532200Y-110900000D03*
X139532200Y-111400000D03*
X139532200Y-111900000D03*
X139532200Y-112400000D03*
X139532200Y-112900000D03*
X139532200Y-113400000D03*
X139532200Y-113900000D03*
X139532200Y-114400000D03*
X139532200Y-114900000D03*
X139532200Y-115400000D03*
X139532200Y-115900000D03*
X139532200Y-116400000D03*
X139532200Y-116900000D03*
X139532200Y-117400000D03*
X139532200Y-117900000D03*
D13*
X142128200Y-122155000D03*
X142128200Y-105645000D03*
D14*
X148910000Y-122155000D03*
X148910000Y-105645000D03*
%TD*%
D15*
%TO.C,D1*%
X144075000Y-84400000D03*
X144075000Y-83000000D03*
%TD*%
D16*
%TO.C,J3*%
X102300000Y-77850000D03*
D17*
X102300000Y-80390000D03*
X102300000Y-82930000D03*
%TD*%
D18*
%TO.C,R3*%
X128895000Y-94500000D03*
X129915000Y-94500000D03*
%TD*%
D16*
%TO.C,J4*%
X102300000Y-119875000D03*
D17*
X102300000Y-122415000D03*
%TD*%
D19*
%TO.C,C2*%
X129405000Y-104880000D03*
X129405000Y-105840000D03*
%TD*%
D20*
%TO.C,A1*%
X151550000Y-59815000D03*
D21*
X148520000Y-60115000D03*
X148520000Y-64965000D03*
D20*
X151550000Y-65265000D03*
D22*
X151680000Y-52850000D03*
D23*
X149140000Y-52850000D03*
D24*
X146600000Y-52850000D03*
D23*
X144060000Y-52850000D03*
X141520000Y-52850000D03*
X138980000Y-52850000D03*
X136440000Y-52850000D03*
D24*
X133900000Y-52850000D03*
D23*
X131360000Y-52850000D03*
X128820000Y-52850000D03*
X126280000Y-52850000D03*
X123740000Y-52850000D03*
D24*
X121200000Y-52850000D03*
D23*
X118660000Y-52850000D03*
X116120000Y-52850000D03*
X113580000Y-52850000D03*
X111040000Y-52850000D03*
D24*
X108500000Y-52850000D03*
D23*
X105960000Y-52850000D03*
X103420000Y-52850000D03*
X103420000Y-72230000D03*
X105960000Y-72230000D03*
D22*
X108500000Y-72230000D03*
D23*
X111040000Y-72230000D03*
X113580000Y-72230000D03*
X116120000Y-72230000D03*
X118660000Y-72230000D03*
D22*
X121200000Y-72230000D03*
D23*
X123740000Y-72230000D03*
X126280000Y-72230000D03*
X128820000Y-72230000D03*
X131360000Y-72230000D03*
D22*
X133900000Y-72230000D03*
D23*
X136440000Y-72230000D03*
X138980000Y-72230000D03*
X141520000Y-72230000D03*
X144060000Y-72230000D03*
D22*
X146600000Y-72230000D03*
D23*
X149140000Y-72230000D03*
X151680000Y-72230000D03*
D25*
X102850000Y-60000000D03*
D26*
X103650000Y-62540000D03*
D25*
X102850000Y-65080000D03*
D27*
X148550000Y-62540000D03*
X151850000Y-63540000D03*
X151850000Y-61540000D03*
X145050000Y-60040000D03*
X142550000Y-60040000D03*
X140050000Y-60040000D03*
%TD*%
D11*
%TO.C,R2*%
X143825000Y-79348974D03*
X144325000Y-79348974D03*
%TD*%
D16*
%TO.C,J1*%
X102300000Y-87968000D03*
D17*
X102300000Y-90508000D03*
X102300000Y-93048000D03*
X102300000Y-95588000D03*
%TD*%
D28*
%TO.C,C1*%
X144325000Y-80598667D03*
X143825000Y-80598667D03*
%TD*%
D29*
%TO.C,J7*%
X142920000Y-90766667D03*
X142920000Y-91266667D03*
X142920000Y-91766667D03*
X142920000Y-92266667D03*
X142920000Y-92766667D03*
X142920000Y-93266667D03*
X142920000Y-93766667D03*
X142920000Y-94266667D03*
X142920000Y-94766667D03*
X142920000Y-95266667D03*
X142920000Y-95766667D03*
X142920000Y-96266667D03*
X142920000Y-96766667D03*
X142920000Y-97266667D03*
X142920000Y-97766667D03*
X142920000Y-98266667D03*
X142920000Y-98766667D03*
X142920000Y-99266667D03*
X142920000Y-99766667D03*
D30*
X143680000Y-102516667D03*
D31*
X149680000Y-102516667D03*
D30*
X143680000Y-88016667D03*
D31*
X149680000Y-88016667D03*
%TD*%
D32*
%TO.C,C3*%
X133410000Y-81200000D03*
X132450000Y-81200000D03*
%TD*%
D33*
%TO.C,U1*%
X129405000Y-97525000D03*
X128135000Y-97525000D03*
X126865000Y-97525000D03*
X125595000Y-97525000D03*
X125595000Y-102475000D03*
X126865000Y-102475000D03*
X128135000Y-102475000D03*
X129405000Y-102475000D03*
%TD*%
D34*
%TO.C,J6*%
X114767800Y-113900000D03*
X114767800Y-113400000D03*
X114767800Y-112900000D03*
X114767800Y-112400000D03*
X114767800Y-111900000D03*
X114767800Y-111400000D03*
X114767800Y-110900000D03*
X114767800Y-110400000D03*
X114767800Y-109900000D03*
X114767800Y-109400000D03*
X114767800Y-108900000D03*
X114767800Y-108400000D03*
X114767800Y-107900000D03*
X114767800Y-107400000D03*
X114767800Y-106900000D03*
X114767800Y-106400000D03*
X114767800Y-105900000D03*
X114767800Y-105400000D03*
X114767800Y-104900000D03*
X114767800Y-104400000D03*
D13*
X112171800Y-100145000D03*
X112171800Y-116655000D03*
D14*
X105390000Y-100145000D03*
X105390000Y-116655000D03*
%TD*%
D35*
%TO.C,J2*%
X146825000Y-83798667D03*
X146825000Y-77398667D03*
X146825000Y-82998667D03*
X146825000Y-78198667D03*
D36*
X146825000Y-81848667D03*
X146825000Y-80848667D03*
X146825000Y-80348667D03*
X146825000Y-79348667D03*
X146825000Y-78848667D03*
X146825000Y-79848667D03*
X146825000Y-81348667D03*
X146825000Y-82348667D03*
D37*
X147375000Y-84923667D03*
D38*
X151575000Y-84923667D03*
D37*
X147375000Y-76273667D03*
D38*
X151575000Y-76273667D03*
%TD*%
D32*
%TO.C,C4*%
X134560000Y-91892667D03*
X133600000Y-91892667D03*
%TD*%
D39*
%TO.C,U2*%
X138480000Y-83282667D03*
X136180000Y-83282667D03*
D40*
X136180000Y-89582667D03*
D39*
X133880000Y-83282667D03*
%TD*%
M02*
