<svg width="32" height="32" viewBox="0 0 32 32" fill="none" xmlns="http://www.w3.org/2000/svg"> <g clip-path="url(#clip0_36_2)"> <path d="M5.322 28.73L4.296 3.24195C4.296 3.24195 4.296 3.09795 4.296 2.80995C4.332 2.52195 4.458 2.19795 4.674 1.83795C4.89 1.44195 5.286 1.09995 5.862 0.81195C6.474 0.48795 7.356 0.30795 8.508 0.27195C10.056 0.199949 11.154 0.379949 11.802 0.81195C12.486 1.20795 12.9 1.63995 13.044 2.10795C13.224 2.53995 13.314 2.77395 13.314 2.80995C13.314 2.84595 13.332 3.25995 13.368 4.05195C13.404 4.84395 13.44 5.81595 13.476 6.96795C13.512 8.11995 13.548 9.27195 13.584 10.4239C13.62 11.576 13.656 12.548 13.692 13.34C13.728 14.096 13.746 14.474 13.746 14.474L19.47 14.15L18.606 3.29595C18.606 3.29595 18.588 3.16995 18.552 2.91795C18.552 2.62995 18.624 2.30595 18.768 1.94595C18.948 1.54995 19.308 1.18995 19.848 0.865949C20.424 0.505949 21.27 0.271949 22.386 0.163948C23.538 0.0559498 24.42 0.12795 25.032 0.379949C25.644 0.59595 26.094 0.883951 26.382 1.24395C26.67 1.60395 26.832 1.92795 26.868 2.21595C26.94 2.50395 26.976 2.64795 26.976 2.64795L28.65 27.866C28.65 27.866 28.668 28.064 28.704 28.46C28.74 28.82 28.686 29.27 28.542 29.81C28.398 30.314 28.038 30.764 27.462 31.16C26.922 31.52 26.076 31.7 24.924 31.7C23.772 31.7 22.872 31.538 22.224 31.214C21.576 30.89 21.108 30.53 20.82 30.134C20.532 29.702 20.352 29.324 20.28 29C20.208 28.676 20.172 28.514 20.172 28.514L19.794 18.146L13.908 18.47L14.394 29.054C14.394 29.054 14.376 29.198 14.34 29.486C14.304 29.738 14.16 30.044 13.908 30.404C13.656 30.728 13.224 31.034 12.612 31.322C12 31.574 11.1 31.7 9.912 31.7C8.724 31.7 7.806 31.556 7.158 31.268C6.546 30.944 6.114 30.602 5.862 30.242C5.61 29.846 5.448 29.504 5.376 29.216C5.34 28.892 5.322 28.73 5.322 28.73Z" fill="#88C0D0"/> </g> <defs> <clipPath id="clip0_36_2"> <rect width="32" height="32" fill="white"/> </clipPath> </defs> </svg>